<svg width="234" height="234" viewBox="0 0 234 234" fill="none" xmlns="http://www.w3.org/2000/svg">
<rect width="234" height="234" fill="#10A3B4"/>
<path fill-rule="evenodd" clip-rule="evenodd" d="M59.0177 154.785C61.2804 155.036 63.5042 154.547 65.1999 153.426C66.8955 152.305 67.9241 150.644 68.0594 148.807C68.1946 146.971 67.4255 145.111 65.9211 143.635C64.4167 142.159 62.3004 141.189 60.0377 140.939C57.7749 140.688 55.5511 141.176 53.8555 142.297C52.1598 143.418 51.1312 145.08 50.996 146.916C50.8607 148.752 51.6299 150.612 53.1342 152.088C54.6386 153.564 56.7549 154.534 59.0177 154.785ZM82.3682 163.702C82.8379 163.868 83.2699 164.106 83.6396 164.402C84.0092 164.698 84.3093 165.046 84.5226 165.427C84.7359 165.808 84.8584 166.214 84.8829 166.621C84.9074 167.029 84.8336 167.43 84.6656 167.803C84.4976 168.175 84.2387 168.511 83.9038 168.792C83.5688 169.072 83.1643 169.292 82.7134 169.438C82.2625 169.584 81.7739 169.653 81.2757 169.642C80.7775 169.631 80.2793 169.54 79.8096 169.374C77.8989 168.696 75.9725 168.053 74.0319 167.446L74.1062 167.684C76.124 174.231 78.1742 180.884 73.5777 185.912L67.9095 201.439C67.6481 202.153 67.0655 202.744 66.2732 203.097C65.4808 203.451 64.5342 203.543 63.614 203.356C62.6939 203.169 61.8648 202.715 61.285 202.083C60.7052 201.45 60.4154 200.682 60.4709 199.925L61.1588 190.587C59.6418 190.527 58.0719 190.353 56.4111 190.169C55.0953 190.023 53.8364 189.884 52.6232 189.695L51.9392 198.979C51.8829 199.736 51.4852 200.427 50.8222 200.922C50.1592 201.417 49.2773 201.68 48.3449 201.661C47.4125 201.643 46.4948 201.344 45.7672 200.822C45.0396 200.3 44.5529 199.591 44.4001 198.831L41.4097 183.898C35.7908 177.403 39.0678 170.723 42.2885 164.158L42.3718 163.987C40.4837 164.138 38.4968 164.333 36.3825 164.57C35.402 164.672 34.3825 164.449 33.5454 163.95C32.7083 163.451 32.1211 162.717 31.9115 161.907C31.7018 161.096 31.8866 160.275 32.4257 159.621C32.9647 158.968 33.8146 158.535 34.7906 158.416C43.9746 157.382 51.3569 157.065 58.774 157.86C66.2023 158.657 73.4412 160.545 82.3682 163.702Z" fill="#F5FEFF"/>
<path fill-rule="evenodd" clip-rule="evenodd" d="M181.589 48.7467C183.327 47.9463 184.721 46.633 185.464 45.0958C186.207 43.5587 186.239 41.9235 185.553 40.5501C184.866 39.1766 183.517 38.1774 181.803 37.7723C180.089 37.3671 178.15 37.5892 176.412 38.3896C174.675 39.19 173.281 40.5033 172.538 42.0405C171.795 43.5776 171.763 45.2128 172.449 46.5862C173.136 47.9597 174.484 48.9589 176.199 49.3641C177.913 49.7692 179.852 49.5472 181.589 48.7467ZM203.259 42.2187C203.768 42.7051 203.996 43.3751 203.892 44.0814C203.789 44.7877 203.362 45.4724 202.706 45.9848C199.645 48.3747 196.82 50.4147 194.053 52.1809L207.006 78.0956C207.304 78.688 207.3 79.3912 206.996 80.0585C206.693 80.7259 206.113 81.306 205.377 81.678C204.641 82.05 203.806 82.1852 203.047 82.0554C202.287 81.9256 201.661 81.5408 201.298 80.9812L193.515 68.9932C193.473 68.9276 193.434 68.8599 193.399 68.7903L190.488 70.1317C190.522 70.2011 190.553 70.2724 190.58 70.3453L195.451 83.6747C195.68 84.296 195.6 85.0057 195.231 85.656C194.861 86.3062 194.229 86.8468 193.466 87.165C192.703 87.4833 191.869 87.5548 191.137 87.3646C190.404 87.1743 189.831 86.737 189.535 86.1438L176.561 60.1865C173.399 61.1473 169.993 61.9931 166.174 62.8237C165.763 62.9168 165.346 62.9416 164.948 62.8966C164.55 62.8517 164.179 62.738 163.856 62.562C163.532 62.386 163.264 62.1512 163.065 61.8713C162.866 61.5914 162.741 61.2719 162.698 60.9312C162.654 60.5906 162.693 60.2356 162.811 59.8868C162.929 59.5379 163.125 59.2022 163.387 58.899C163.649 58.5958 163.972 58.3312 164.337 58.1204C164.702 57.9096 165.103 57.7568 165.515 57.6709C172.959 56.0511 178.364 54.4588 183.328 52.1931C188.281 49.9327 192.965 46.9257 198.866 42.3169C199.522 41.8045 200.354 41.5063 201.177 41.4878C202.001 41.4694 202.75 41.7323 203.259 42.2187Z" fill="#F5FEFF"/>
<path d="M58.0662 58.9532C55.399 57.739 52.2697 58.7711 51.0341 61.2726C49.7984 63.774 50.9463 66.7533 53.6135 67.9675C56.2806 69.1817 59.41 68.1496 60.6456 65.6482C61.8812 63.1467 60.7334 60.1675 58.0662 58.9532ZM86.5478 60.878L80.9818 72.1458L76.1761 69.958L78.4024 65.4509L39.9564 47.9485L37.73 52.4556L32.9243 50.2678L38.4902 39L43.296 41.1878L41.0696 45.6949L79.5156 63.1973L81.742 58.6902L86.5478 60.878ZM58.3063 76.3422L45.2374 102.799L40.4316 100.611L45.9976 89.3434L41.1918 87.1556L35.6259 98.4234L30.8201 96.2356L43.889 69.7788C40.1284 65.0581 39.1079 58.6036 41.8909 52.9697L42.4475 51.8429L47.2533 54.0307L46.6967 55.1575C43.9137 60.7914 46.4931 67.4863 52.5003 70.221C58.5075 72.9558 65.5396 70.6365 68.3226 65.0026L68.8792 63.8758L73.6849 66.0636L73.1283 67.1904C70.3454 72.8243 64.4936 76.1502 58.3063 76.3422Z" fill="#F5FEFF"/>
<path d="M185.132 148.74L189.037 159.03L185.379 159.963L183.686 155.5L168.415 183.597L173.196 182.378L174.492 185.792L163.466 188.603L159.56 178.313L163.219 177.38L164.912 181.842L180.183 153.746L175.402 154.965L174.106 151.551L185.132 148.74ZM208.71 160.578C210.843 161.976 211.632 165.349 209.985 168.379C209.078 170.049 207.616 171.195 206.096 171.733L204.282 172.373L205.896 173.554C207.038 174.389 207.642 175.432 207.914 176.774C208.186 178.115 208.07 179.736 207.665 181.469C206.93 184.607 205.269 188.056 203.683 191.035L199.512 188.946L191.043 201.848C187.821 200.967 184.726 199.391 182.226 197.434L188.538 183.449L184.566 181.46C186.201 178.459 188.099 175.069 190.3 172.639C191.513 171.298 192.807 170.27 194.113 169.732C195.418 169.194 196.695 169.098 198.208 169.612L200.151 170.273L199.692 168.445C199.32 166.967 199.487 165.193 200.372 163.564C202.128 160.333 205.73 159.095 208.234 160.35L208.71 160.578Z" fill="#F5FEFF"/>
<path d="M100.017 100.195L98.6504 104.56L121.789 141.027L126.231 141.976L166.669 118.328L167.891 114.068L144.745 77.5894L140.239 76.674L100.017 100.195ZM120.996 92.0535L123.45 95.9216L125.38 94.793L122.925 90.925C125.656 89.3679 128.452 87.9362 131.208 86.6965L132.907 92.2239L135.043 91.5593L133.272 85.8019C136.432 84.4811 139.492 83.4423 142.301 82.773L144.039 96.6319C140.841 97.6386 136.656 99.5679 132.444 101.872C133.221 102.147 133.897 102.656 134.345 103.363C135.458 105.116 134.776 107.494 132.836 108.629C130.895 109.763 128.382 109.254 127.269 107.501C126.821 106.794 126.66 105.984 126.761 105.195C122.686 107.737 118.991 110.416 116.592 112.682L104.562 104.842C106.47 102.752 108.835 100.619 111.507 98.529L116.024 102.681L117.619 101.164L113.282 97.1791C115.694 95.3969 118.302 93.6688 120.996 92.0535ZM118.957 95.9535L117.613 97.68L127.166 103.909C127.51 103.27 128.019 102.706 128.693 102.285L118.957 95.9535ZM129.885 103.979C128.985 104.505 128.683 105.559 129.199 106.372C129.715 107.186 130.829 107.412 131.729 106.885C132.63 106.358 132.932 105.305 132.416 104.491C131.899 103.678 130.786 103.452 129.885 103.979ZM125.874 127.309L153.32 111.259L154.427 113.003L126.98 129.053L125.874 127.309ZM128.824 131.959L156.271 115.909L157.377 117.653L129.93 133.703L128.824 131.959Z" fill="#F5FEFF"/>
</svg>
