<svg width="48" height="48" viewBox="0 0 48 48" fill="none" xmlns="http://www.w3.org/2000/svg">
<path d="M43.1111 2C44.4077 2 45.6512 2.51508 46.5681 3.43192C47.4849 4.34877 48 5.59227 48 6.88889V41.1111C48 42.4077 47.4849 43.6512 46.5681 44.5681C45.6512 45.4849 44.4077 46 43.1111 46H8.88889C7.59227 46 6.34877 45.4849 5.43192 44.5681C4.51508 43.6512 4 42.4077 4 41.1111V6.88889C4 5.59227 4.51508 4.34877 5.43192 3.43192C6.34877 2.51508 7.59227 2 8.88889 2H43.1111ZM41.8889 39.8889V26.9333C41.8889 24.8199 41.0493 22.7929 39.5549 21.2985C38.0604 19.804 36.0335 18.9644 33.92 18.9644C31.8422 18.9644 29.4222 20.2356 28.2489 22.1422V19.4289H21.4289V39.8889H28.2489V27.8378C28.2489 25.9556 29.7644 24.4156 31.6467 24.4156C32.5543 24.4156 33.4248 24.7761 34.0665 25.4179C34.7083 26.0597 35.0689 26.9301 35.0689 27.8378V39.8889H41.8889ZM13.4844 15.5911C14.5736 15.5911 15.6181 15.1584 16.3883 14.3883C17.1584 13.6181 17.5911 12.5736 17.5911 11.4844C17.5911 9.21111 15.7578 7.35333 13.4844 7.35333C12.3888 7.35333 11.338 7.78857 10.5633 8.56331C9.78857 9.33804 9.35333 10.3888 9.35333 11.4844C9.35333 13.7578 11.2111 15.5911 13.4844 15.5911ZM16.8822 39.8889V19.4289H10.1111V39.8889H16.8822Z" fill="#C2B8FD"/>
</svg>
