<svg width="48" height="48" viewBox="0 0 48 48" fill="none" xmlns="http://www.w3.org/2000/svg">
<path d="M32.25 16.75H44.625L32.25 4.375V16.75ZM16.5 1H34.5L48 14.5V41.5C48 42.6935 47.5259 43.8381 46.682 44.682C45.8381 45.5259 44.6935 46 43.5 46H16.5C15.3065 46 14.1619 45.5259 13.318 44.682C12.4741 43.8381 12 42.6935 12 41.5V5.5C12 3.0025 14.0025 1 16.5 1ZM34.5 41.5V39.25C34.5 36.2575 28.4925 34.75 25.5 34.75C22.5075 34.75 16.5 36.2575 16.5 39.25V41.5H34.5ZM25.5 23.5C24.3065 23.5 23.1619 23.9741 22.318 24.818C21.4741 25.6619 21 26.8065 21 28C21 29.1935 21.4741 30.3381 22.318 31.182C23.1619 32.0259 24.3065 32.5 25.5 32.5C26.6935 32.5 27.8381 32.0259 28.682 31.182C29.5259 30.3381 30 29.1935 30 28C30 26.8065 29.5259 25.6619 28.682 24.818C27.8381 23.9741 26.6935 23.5 25.5 23.5Z" fill="#C2B8FD"/>
</svg>
