<svg width="98" height="92" viewBox="0 0 98 92" fill="none" xmlns="http://www.w3.org/2000/svg">
<g clip-path="url(#clip0_77_34)">
<path d="M60.4187 5.24839C61.246 5.48016 62.0196 5.87291 62.6952 6.40419C63.3708 6.93547 63.9353 7.59486 64.3563 8.34468C64.7773 9.0945 65.0465 9.92004 65.1487 10.7741C65.2509 11.6282 65.1839 12.4941 64.9517 13.3222L45.6384 82.2203C45.1702 83.8922 44.0578 85.3095 42.546 86.1603C41.0342 87.0111 39.2468 87.2257 37.577 86.7569C35.9072 86.2881 34.4917 85.1744 33.642 83.6606C32.7923 82.1469 32.578 80.3572 33.0461 78.6853L52.3595 9.77846C52.5914 8.95049 52.984 8.17638 53.5148 7.50036C54.0456 6.82434 54.7042 6.25966 55.453 5.83857C56.2018 5.41748 57.0262 5.14824 57.8789 5.04623C58.7317 4.94421 59.5962 5.01143 60.423 5.24403L60.4187 5.24839ZM29.6464 22.8581C30.8707 24.0855 31.5584 25.7493 31.5584 27.4841C31.5584 29.2189 30.8707 30.8828 29.6464 32.1102L15.7858 46.0016L29.6551 59.8885C30.881 61.1166 31.5695 62.782 31.5691 64.5183C31.5687 66.2547 30.8794 67.9197 29.6529 69.1472C28.4264 70.3747 26.7631 71.0641 25.029 71.0637C23.2948 71.0633 21.6319 70.3731 20.406 69.145L1.91207 50.6276C0.687709 49.4002 0 47.7363 0 46.0016C0 44.2668 0.687709 42.6029 1.91207 41.3755L20.4016 22.8581C21.0088 22.2497 21.7297 21.7671 22.5232 21.4379C23.3167 21.1087 24.1672 20.9392 25.0262 20.9392C25.8851 20.9392 26.7356 21.1087 27.5291 21.4379C28.3226 21.7671 29.0392 22.2497 29.6464 22.8581ZM68.3515 32.1102C67.7091 31.5109 67.1939 30.7882 66.8365 29.9852C66.4792 29.1822 66.2871 28.3153 66.2716 27.4363C66.2561 26.5573 66.4176 25.6842 66.7464 24.8691C67.0752 24.054 67.5647 23.3135 68.1855 22.6919C68.8063 22.0702 69.5459 21.5802 70.36 21.2509C71.1741 20.9217 72.046 20.76 72.9239 20.7755C73.8018 20.791 74.6675 20.9834 75.4695 21.3412C76.2715 21.699 76.9933 22.2149 77.5919 22.8581L96.0858 41.3711C97.3114 42.5987 98 44.2635 98 45.9994C98 47.7352 97.3114 49.4 96.0858 50.6276L77.5962 69.145C76.9892 69.7531 76.2685 70.2355 75.4753 70.5647C74.6821 70.8939 73.8319 71.0635 72.9732 71.0637C72.1145 71.0639 71.2643 70.8947 70.4709 70.5659C69.6775 70.2371 68.9566 69.755 68.3493 69.1472C67.742 68.5394 67.2602 67.8178 66.9314 67.0236C66.6026 66.2294 66.4333 65.3781 66.4331 64.5183C66.4329 63.6586 66.6018 62.8072 66.9302 62.0128C67.2586 61.2184 67.7401 60.4966 68.3471 59.8885L82.2164 46.0016L68.3515 32.1102Z" fill="#111827" fill-opacity="0.5"/>
</g>
<defs>
<clipPath id="clip0_77_34">
<rect width="98" height="92" fill="white"/>
</clipPath>
</defs>
</svg>
