<svg width="98" height="92" viewBox="0 0 98 92" fill="none" xmlns="http://www.w3.org/2000/svg">
<path d="M90.9995 25.3756V10.9998C90.9995 9.14333 90.262 7.36291 88.9492 6.05019C87.6365 4.73748 85.856 4 83.9995 4H6.99996C5.14346 4 3.36299 4.73748 2.05024 6.05019C0.737493 7.36291 0 9.14333 0 10.9998V66.9981C0 68.8546 0.737493 70.635 2.05024 71.9477C3.36299 73.2604 5.14346 73.9979 6.99996 73.9979H55.9997V84.4976C55.9993 85.0945 56.1515 85.6816 56.4419 86.203C56.7324 86.7245 57.1513 87.163 57.659 87.4769C58.1667 87.7908 58.7463 87.9697 59.3426 87.9965C59.9389 88.0233 60.5321 87.8971 61.0659 87.63L73.4996 81.4089L85.9333 87.63C86.4671 87.8971 87.0603 88.0233 87.6566 87.9965C88.2529 87.9697 88.8325 87.7908 89.3402 87.4769C89.8478 87.163 90.2668 86.7245 90.5572 86.203C90.8477 85.6816 90.9999 85.0945 90.9995 84.4976V59.6221C95.4863 55.0519 98 48.9033 98 42.4988C98 36.0944 95.4863 29.9458 90.9995 25.3756ZM45.4997 49.4986H20.9999C20.0716 49.4986 19.1814 49.1299 18.525 48.4735C17.8686 47.8172 17.4999 46.927 17.4999 45.9987C17.4999 45.0705 17.8686 44.1803 18.525 43.5239C19.1814 42.8676 20.0716 42.4988 20.9999 42.4988H45.4997C46.428 42.4988 47.3182 42.8676 47.9746 43.5239C48.631 44.1803 48.9997 45.0705 48.9997 45.9987C48.9997 46.927 48.631 47.8172 47.9746 48.4735C47.3182 49.1299 46.428 49.4986 45.4997 49.4986ZM45.4997 35.4991H20.9999C20.0716 35.4991 19.1814 35.1303 18.525 34.474C17.8686 33.8176 17.4999 32.9274 17.4999 31.9992C17.4999 31.0709 17.8686 30.1807 18.525 29.5244C19.1814 28.868 20.0716 28.4993 20.9999 28.4993H45.4997C46.428 28.4993 47.3182 28.868 47.9746 29.5244C48.631 30.1807 48.9997 31.0709 48.9997 31.9992C48.9997 32.9274 48.631 33.8176 47.9746 34.474C47.3182 35.1303 46.428 35.4991 45.4997 35.4991ZM83.9995 78.8365L75.0658 74.3654C74.5796 74.1221 74.0433 73.9954 73.4996 73.9954C72.9559 73.9954 72.4196 74.1221 71.9333 74.3654L62.9996 78.8365V64.6313C66.2806 66.1896 69.8673 66.9981 73.4996 66.9981C77.1318 66.9981 80.7186 66.1896 83.9995 64.6313V78.8365ZM73.4996 59.9983C70.0384 59.9983 66.655 58.972 63.7772 57.0491C60.8993 55.1263 58.6563 52.3932 57.3318 49.1956C56.0073 45.998 55.6607 42.4794 56.3359 39.0849C57.0112 35.6903 58.6779 32.5722 61.1253 30.1249C63.5727 27.6775 66.6909 26.0108 70.0855 25.3356C73.4802 24.6604 76.9988 25.0069 80.1965 26.3314C83.3942 27.6559 86.1273 29.8989 88.0502 32.7767C89.9731 35.6544 90.9995 39.0378 90.9995 42.4988C90.9995 47.14 89.1558 51.5911 85.8739 54.8728C82.592 58.1546 78.1409 59.9983 73.4996 59.9983Z" fill="#111827" fill-opacity="0.5"/>
</svg>
