<svg width="92" height="92" viewBox="0 0 92 92" fill="none" xmlns="http://www.w3.org/2000/svg">
<path fill-rule="evenodd" clip-rule="evenodd" d="M34.8067 5.65897C27.0427 8.02061 20.1403 12.776 15.0011 19.304C9.86197 25.832 6.725 33.829 6 42.2505H24.3591C25.4235 29.4357 28.9765 16.9826 34.8009 5.65297L34.8067 5.65897ZM24.3591 49.75H6C6.72349 58.1718 9.85911 66.1696 14.9972 72.6987C20.1354 79.2277 27.0371 83.9845 34.8009 86.3475C28.9765 75.0179 25.4235 62.5648 24.3591 49.75ZM44.0034 87.9494C37.043 76.4151 32.778 63.3287 31.5536 49.75H60.4406C59.2163 63.3287 54.9513 76.4151 47.9908 87.9494C46.6625 88.0169 45.3318 88.0169 44.0034 87.9494ZM57.1991 86.3415C64.962 83.9789 71.8632 79.223 77.0012 72.6951C82.1393 66.1672 85.2754 58.1707 86 49.75H67.6409C66.5765 62.5648 63.0235 75.0179 57.1991 86.3475V86.3415ZM67.6409 42.2505H86C85.2765 33.8287 82.1409 25.8309 77.0027 19.3018C71.8646 12.7728 64.9629 8.01601 57.1991 5.65297C63.0236 16.9826 66.5767 29.4357 67.6409 42.2505ZM44.0034 4.05108C45.3337 3.98297 46.6663 3.98297 47.9966 4.05108C54.955 15.586 59.218 28.6723 60.4406 42.2505H31.5594C32.8044 28.5894 37.0786 15.4923 44.0034 4.05108Z" fill="#111827" fill-opacity="0.5"/>
</svg>
