<svg width="460" height="460" viewBox="0 0 460 460" fill="none" xmlns="http://www.w3.org/2000/svg">
<rect width="460" height="460" fill="white"/>
<path d="M212.2 239.775C203.585 252.305 191.363 258.996 184.891 254.698C178.44 250.399 180.191 236.754 188.807 224.225C197.422 211.695 209.645 205.004 216.096 209.302C222.547 213.601 220.836 227.225 212.2 239.775Z" fill="url(#paint0_linear_86_44)"/>
<path d="M212.2 239.775C203.585 252.305 191.363 258.996 184.891 254.698C178.44 250.399 180.191 236.754 188.807 224.225C197.422 211.695 209.645 205.004 216.096 209.302C222.547 213.601 220.836 227.225 212.2 239.775Z" fill="url(#paint1_linear_86_44)"/>
<path d="M314.277 312.576C297.462 312.576 296.738 325.341 276.705 325.341C256.672 325.341 245.93 317.184 227.325 306.174C211.817 297 193.574 298.915 184 297L191.141 302.046C191.141 302.046 204.516 318.939 224.711 329.011C253.996 343.609 288.652 326.796 303.718 327.834C322.484 329.11 345.696 333.179 350 332.859C347.888 331.144 346.118 312.576 314.277 312.576Z" fill="url(#paint2_linear_86_44)"/>
<path d="M314.277 312.576C297.462 312.576 296.738 325.341 276.705 325.341C256.672 325.341 245.93 317.184 227.325 306.174C211.817 297 193.574 298.915 184 297L196.853 307.73C196.853 307.73 204.516 318.939 224.711 329.011C253.996 343.609 288.652 326.796 303.718 327.834C322.484 329.11 345.696 333.179 350 332.859C347.888 331.144 346.118 312.576 314.277 312.576Z" fill="url(#paint3_linear_86_44)"/>
<path d="M315 312.219C298.092 312.219 297.363 325.176 277.219 325.176C257.075 325.176 246.274 316.895 227.566 305.72C211.972 296.407 193.628 298.351 184 302.157L196.924 307.279C196.924 307.279 201.536 314 212.842 321.754C214.197 320.722 214.864 324.508 214.52 321.228C211.547 292.662 241.258 328.698 267.875 327.99C297.768 327.2 315 312.219 315 312.219Z" fill="url(#paint4_linear_86_44)"/>
<path d="M142.448 273L111.196 317.901C108.475 321.792 100.355 341.986 95.2575 354.961C94.0485 358.05 97.353 360.336 99.8515 358.11C110.088 348.965 125.986 334.667 129.794 330.716L163 283.047C153.49 282.826 145.45 280.4 142.448 273Z" fill="url(#paint5_linear_86_44)"/>
<path d="M96 357.909C96.8805 359.134 98.7415 359.496 100.282 358.11C110.449 348.953 126.238 334.634 130.02 330.678L163 282.944C160.118 282.884 157.377 282.562 154.875 282L126.278 323.349C124.357 325.236 112.71 341.683 96 357.909Z" fill="url(#paint6_linear_86_44)"/>
<path d="M145 277.639C142.826 276.12 143.269 275.654 142.202 273L110.979 318.36C108.262 322.291 100.149 342.692 95.0558 355.8C93.848 358.919 112.61 324.641 115.005 321.176L145 277.639Z" fill="url(#paint7_linear_86_44)"/>
<path d="M184.072 321.618C196.561 335.427 207.593 339 217.916 339C228.239 339 230.405 334.002 228.239 330.309C226.074 326.616 219.839 319.25 210.002 317.805C200.164 316.38 191.764 294.241 191.764 294.241L179.518 294L168 308.271L184.072 321.618Z" fill="url(#paint8_linear_86_44)"/>
<path d="M184.072 321.618C196.561 335.427 207.593 339 217.916 339C228.239 339 230.405 334.002 228.239 330.309C226.074 326.616 219.839 319.25 210.002 317.805C200.164 316.38 191.764 294.241 191.764 294.241L179.518 294L168 308.271L184.072 321.618Z" fill="url(#paint9_linear_86_44)"/>
<path d="M189.221 325.257C184.906 317.241 191.308 311.123 200 310.153C194.948 303.228 191.512 294.242 191.512 294.242L179.138 294L172.777 301.835L172 304.076C172 304.076 194.191 334.484 189.221 325.257Z" fill="url(#paint10_linear_86_44)"/>
<path d="M191 294C193.376 298.895 195.731 303.79 198.803 308.232C201.855 312.489 205.398 317.22 210.764 317.652C216.253 318.783 221.209 321.889 224.875 326.023C226.555 328.161 228.623 330.218 228.992 333.221C229.176 336.368 226.308 338.383 223.789 339C226.288 338.157 228.705 335.935 228.275 333.282C227.865 330.794 225.756 328.717 224.035 326.783C220.349 322.979 215.638 320.037 210.457 319.092C207.733 318.824 204.906 317.281 202.981 315.348C200.974 313.394 199.274 311.194 197.84 308.87C196.407 306.525 195.117 304.119 193.97 301.63C192.884 299.101 191.983 296.53 191 294Z" fill="#804B24"/>
<path d="M162.689 323.794C166.18 336.12 180.597 344.87 190.6 343.931C196.857 343.332 198.505 333.503 191.071 325.932C183.637 318.361 178.949 305.276 178.949 305.276L172.221 284L161.747 311.249L155 325.932L162.689 323.794Z" fill="url(#paint11_linear_86_44)"/>
<path d="M162.689 323.794C166.18 336.12 180.597 344.87 190.6 343.931C196.857 343.332 198.505 333.503 191.071 325.932C183.637 318.361 178.949 305.276 178.949 305.276L172.221 284L161.747 311.249L155 325.932L162.689 323.794Z" fill="url(#paint12_linear_86_44)"/>
<path d="M185 316.893C181.26 310.764 179.065 304.98 179.065 304.98L175.43 294L167.364 294.67L160.761 311.048L157 318.882L159.507 324.402L161.764 323.814C163.457 329.517 167.615 334.387 172.588 338C167.322 328.786 175.534 318.192 185 316.893Z" fill="url(#paint13_linear_86_44)"/>
<path d="M196.867 338C196.784 333.78 194.607 330.028 191.767 327.153C188.699 324.197 186.315 320.567 184.242 316.938C180.095 309.598 176.716 301.911 174 294C177.669 301.524 181.298 309.068 185.486 316.245C187.683 319.792 189.735 323.381 192.721 326.297C195.644 329.437 197.531 333.8 196.867 338Z" fill="#804B24"/>
<path d="M137 320.277C137 331.401 150.919 344 159.219 344C167.518 344 167.758 332.754 166.338 328.433C164.918 324.133 162.818 314.644 162.818 314.644L155.659 310L137 320.277Z" fill="url(#paint14_linear_86_44)"/>
<path d="M137 320.277C137 331.401 150.919 344 159.219 344C167.518 344 167.758 332.754 166.338 328.433C164.918 324.133 162.818 314.644 162.818 314.644L155.659 310L137 320.277Z" fill="url(#paint15_linear_86_44)"/>
<path d="M164 320.699C163.207 317.461 162.592 314.625 162.592 314.625L155.495 310L137 320.216C137 327.014 142.174 334.334 148.082 339C146.416 329.588 157.755 323.353 164 320.699Z" fill="url(#paint16_linear_86_44)"/>
<path d="M166.288 339C167.076 336.25 167.014 333.44 166.641 330.75C166.184 328.18 164.961 325.389 164.422 322.64C163.011 317.139 161.871 311.6 161 306C162.763 311.4 164.297 316.861 165.77 322.321C166.433 325.11 167.533 327.581 167.927 330.611C168.196 333.5 167.74 336.509 166.288 339Z" fill="#804B24"/>
<path d="M121.465 303.1C121.768 315.721 133.438 320.902 142.767 320.902C152.095 320.902 171.822 309.733 178.646 304.713C185.471 299.693 208.125 294.733 226.802 305.842C245.479 316.95 256.261 325.216 276.371 325.216C296.481 325.216 297.208 312.314 314.088 312.314C349.644 312.314 347.847 335.619 350.714 332.756C353.581 329.893 364 305.862 364 282.919C364 267.738 360.386 259.694 357.943 252.114C356.872 248.768 353.581 246.812 350.089 247.235C325.072 250.239 288.042 219.555 262.722 207.257C235.424 193.991 213.153 180 196.637 180C180.12 180 126.614 209.757 119.789 216.571C112.965 223.385 110.098 231.268 110.098 240.965C110.098 250.642 104 273.605 104 293.322C104 309.088 107.897 314.995 113.51 311.608C114.924 310.761 116.418 309.33 118.013 307.314C118.477 306.709 121.485 304.068 121.465 303.1C121.465 295.56 127.341 285.843 137.457 277.113C138.91 275.863 140.102 272.355 141.091 269.613C141.091 269.613 143.958 255.985 146.845 249.775C149.733 243.566 154.033 239.736 160.737 238.304C179.838 234.212 194.254 209.374 203.825 215.12C213.395 220.865 203.34 242.881 184.179 249.574C165.018 256.267 154.982 263.888 142.04 273.444C129.098 283 121.465 294.492 121.465 303.1Z" fill="url(#paint17_linear_86_44)"/>
<path d="M350.25 247.916C325.236 250.923 288.209 220.201 262.892 207.888C242.42 197.917 224.775 187.562 210.279 183L204 215.781C205.938 216.931 206.988 218.506 207.311 220.322C207.594 221.352 207.654 222.503 207.614 223.693C207.614 223.815 207.594 223.935 207.594 224.057C207.513 225.288 207.291 226.56 206.887 227.892C228.086 204.78 241.431 202.761 253.685 207.767C274.561 216.285 297.86 251.206 326.225 251.206C354.47 251.206 361.939 267.879 362 268C360.789 261.803 359.295 256.535 358.103 252.78C357.559 251.105 356.468 249.773 355.075 248.925C353.723 248.097 352.067 247.714 350.371 247.895C350.311 247.936 350.29 247.916 350.25 247.916Z" fill="url(#paint18_linear_86_44)"/>
<path d="M262.927 207.653C247.625 200.093 233.903 192.331 221.922 187L209 216.105C213.641 212.052 223.142 209.376 242.665 214.504C282.509 224.962 304.933 280.842 325.215 279.99C343.497 279.24 342.757 266.532 362 272.998C360.74 264.607 358.779 257.472 357.279 252.73C356.739 251.048 355.659 249.71 354.279 248.858C352.899 248.007 351.219 247.622 349.498 247.825C324.695 250.865 287.99 220.017 262.927 207.653Z" fill="url(#paint19_linear_86_44)"/>
<path d="M204.369 214.774C213.895 220.586 203.887 242.855 184.816 249.625C170.427 254.744 161.204 260.393 152 267C164.339 259.516 178.426 258.537 189.137 253.235C214.739 240.55 215 212 215 212L204.369 214.774Z" fill="url(#paint20_linear_86_44)"/>
<path d="M197.844 180C181.112 180 126.909 209.818 119.995 216.647C113.082 223.475 110.177 231.373 110.177 241.091C110.177 250.788 104 273.798 104 293.555C104 295.919 104.102 298.06 104.266 300C108.398 279.232 112.161 229.414 123.554 219.798C137.606 207.939 186.369 179.919 207.825 183.151C209.953 183.475 211.589 183.313 213 182.929C207.518 181.091 202.446 180 197.844 180Z" fill="url(#paint21_linear_86_44)"/>
<path d="M207 217.264C207.234 217.497 207.383 217.742 207.511 218L209 216C208.213 216.413 207.532 216.839 207 217.264Z" fill="url(#paint22_linear_86_44)"/>
<path d="M141.5 270.191C141.5 270.191 144.343 256.609 147.205 250.422C150.048 244.233 154.331 240.416 160.977 238.99C164.22 238.287 167.302 236.961 170.265 235.313C183.516 222.053 200.23 191.113 195.026 196.658C162.058 231.857 162.178 224.002 148.286 237.945C134.394 251.888 138.498 267.418 131.192 274.751C124.847 281.12 112.676 296.309 114.118 312C115.519 311.156 117.02 309.75 118.581 307.741C119.062 307.158 122.044 304.526 122.024 303.562C122.024 303.562 121.484 298.76 125.867 291.588C125.907 291.528 125.947 291.487 125.968 291.447C128.67 286.886 132.693 282.145 137.857 277.685C138.338 277.002 138.798 276.299 139.279 275.596C140.14 273.988 140.86 271.959 141.5 270.191Z" fill="url(#paint23_linear_86_44)"/>
<path d="M351.324 332.76C352.435 331.667 354.677 327.435 357 321.394C334.015 292.961 306.324 300.313 298.043 307.327C289.418 314.639 274.816 323.123 256.84 315.811C238.864 308.499 232.643 284 207.981 284C183.32 284 165.587 299.2 154.094 304.843C144.036 309.791 134.139 309.473 122.323 299.518L122 303.552C122.323 316.685 134.725 321.096 143.309 321.096C152.64 321.096 172.393 310.089 179.2 305.141C186.026 300.194 208.688 295.306 227.371 306.254C246.054 317.202 256.84 325.348 276.957 325.348C297.073 325.348 297.801 312.632 314.686 312.632C350.254 312.612 348.456 335.581 351.324 332.76Z" fill="url(#paint24_radial_86_44)"/>
<path d="M351.319 332.762C352.267 331.835 354.063 328.524 356 323.852C353.538 319.417 348.938 315.732 341.391 313.386C300.834 300.771 300.834 321.803 270.325 322.67C239.816 323.537 230.131 292 212.899 292C174.904 292 155.655 319.28 129 316.776C133.318 319.89 138.927 321.191 143.488 321.191C152.81 321.191 172.544 310.272 179.344 305.364C186.163 300.456 208.803 295.607 227.467 306.468C246.132 317.328 256.907 325.41 277.004 325.41C297.101 325.41 297.827 312.795 314.696 312.795C350.25 312.775 348.454 335.561 351.319 332.762Z" fill="url(#paint25_linear_86_44)"/>
<path opacity="0.75" d="M216.318 238.118C225.403 236.451 230.077 232.515 237.426 231.17C244.796 229.824 277.948 226.751 280.765 242.435C283.583 258.119 260.372 267.055 246.796 273.682C233.221 280.309 198.374 276.895 193.904 264.464C189.474 252.034 202.029 240.728 216.318 238.118Z" fill="url(#paint26_radial_86_44)"/>
<path opacity="0.75" d="M157.914 230.735C153.528 235.648 146.374 234.89 142.817 238.862C139.26 242.853 127.155 281.911 118.707 273.927C110.26 265.944 118.243 238.104 122.972 228.34C127.721 218.555 168.14 192.353 176.103 197.716C184.065 203.079 164.826 222.997 157.914 230.735Z" fill="url(#paint27_radial_86_44)"/>
<path d="M280.435 110.105C279.263 108.103 277.262 105.333 274.333 103.311C271.423 101.288 268.211 100.439 265.968 100.055C264.291 99.7718 262.513 100.601 261.442 102.158L143 273.232C143.121 273.515 143.283 273.737 143.404 274C144.152 273.434 144.839 272.827 145.566 272.241L145.162 272.706C157.164 263.808 167.186 256.589 185.35 250.22C185.936 250.018 186.461 249.714 187.027 249.492L194.26 239.057L280.071 115.12C281.162 113.563 281.303 111.581 280.435 110.105Z" fill="url(#paint28_linear_86_44)"/>
<path d="M156.474 262.277L262.601 108.16C265.557 103.248 266.844 100.297 265.416 100.055C263.747 99.7719 261.977 100.601 260.912 102.157L143 273.151C143.141 273.495 143.201 273.717 143.301 274C148.028 270.483 152.171 266.38 156.474 262.277Z" fill="url(#paint29_radial_86_44)"/>
<path d="M280.072 114.887C280.215 114.705 280.276 114.482 280.378 114.28C280.703 113.654 280.948 112.988 280.989 112.342C281.05 111.473 280.866 110.605 280.439 109.858C280.418 109.837 280.398 109.797 280.378 109.777C279.706 108.666 278.769 107.333 277.567 106L174 254C177.258 252.566 180.72 251.152 184.609 249.799C185.2 249.597 185.729 249.294 186.299 249.072L193.589 238.651L280.072 114.887Z" fill="url(#paint30_linear_86_44)"/>
<path d="M315 312.744C309.69 312.744 304.542 314.453 300.242 317.489C295.941 320.424 291.54 323.621 286.291 324.908C275.873 327.2 264.889 325.732 255.016 321.932C245.144 317.971 236.361 311.98 227.276 306.732C218.291 301.444 207.53 299.615 197.193 300.58C192.024 301.042 186.836 302.148 182.212 304.38C177.892 306.993 173.41 310.17 168.746 312.563C164.102 315.096 159.337 317.408 154.371 319.298C149.505 321.208 143.953 322.555 138.663 321.309C133.454 320.303 128.265 317.75 125.096 313.307C121.946 308.924 121.139 302.972 122.956 297.946C126.57 287.813 134.605 280.193 142.943 274C134.726 280.374 126.892 288.215 123.622 298.167C121.926 303.053 122.753 308.682 125.762 312.824C128.79 317.026 133.777 319.439 138.824 320.384C143.973 321.55 149.101 320.223 153.967 318.313C158.832 316.423 163.557 314.091 168.14 311.537C172.844 309.064 176.943 306.089 181.586 303.214C186.452 300.821 191.742 299.675 197.031 299.172C207.631 298.247 218.655 300.218 227.841 305.707C236.926 311.035 245.628 317.067 255.319 321.047C264.97 324.868 275.873 326.375 286.068 324.224C291.197 323.098 295.598 320.062 299.999 317.187C304.441 314.231 309.71 312.623 315 312.744Z" fill="#804B24"/>
<path d="M206.477 218.957C206.895 220.22 207.114 221.544 207.034 222.888C206.198 231.034 200.82 238.121 194.625 243.111C188.511 248.528 180.184 250.096 172.854 253.905C165.405 257.387 158.474 261.929 152 267C158.792 262.377 165.843 258.182 173.253 254.781C176.957 253.09 180.762 251.604 184.606 250.26C188.51 248.875 192.235 246.879 195.522 244.252C201.836 238.936 207.253 231.625 207.991 222.949C208.05 221.279 207.831 219.548 207.154 218L206.477 218.957Z" fill="#804B24"/>
<defs>
<linearGradient id="paint0_linear_86_44" x1="216.908" y1="248.888" x2="132.803" y2="159.379" gradientUnits="userSpaceOnUse">
<stop offset="0.00132565" stop-color="#FFCB4B"/>
<stop offset="1" stop-color="#FFD748"/>
</linearGradient>
<linearGradient id="paint1_linear_86_44" x1="206.974" y1="299.489" x2="201.296" y2="238.164" gradientUnits="userSpaceOnUse">
<stop stop-color="#E6AF74" stop-opacity="0"/>
<stop offset="1" stop-color="#E6AF74"/>
</linearGradient>
<linearGradient id="paint2_linear_86_44" x1="267.75" y1="332.9" x2="268.675" y2="355.287" gradientUnits="userSpaceOnUse">
<stop offset="0.00132565" stop-color="#F0C492"/>
<stop offset="1" stop-color="#F8DBBA"/>
</linearGradient>
<linearGradient id="paint3_linear_86_44" x1="273.234" y1="337.546" x2="244.591" y2="231.944" gradientUnits="userSpaceOnUse">
<stop stop-color="#D2A374" stop-opacity="0"/>
<stop offset="1" stop-color="#B88653"/>
</linearGradient>
<linearGradient id="paint4_linear_86_44" x1="252.237" y1="339.141" x2="244.306" y2="246.956" gradientUnits="userSpaceOnUse">
<stop stop-color="#FFBA47" stop-opacity="0"/>
<stop offset="1" stop-color="#C66F34"/>
</linearGradient>
<linearGradient id="paint5_linear_86_44" x1="82.954" y1="278.971" x2="130.462" y2="321.982" gradientUnits="userSpaceOnUse">
<stop offset="0.00132565" stop-color="#0097D4"/>
<stop offset="0.2368" stop-color="#0294D6"/>
<stop offset="0.4442" stop-color="#0989DB"/>
<stop offset="0.6411" stop-color="#1477E4"/>
<stop offset="0.8304" stop-color="#245EF0"/>
<stop offset="1" stop-color="#3640FF"/>
</linearGradient>
<linearGradient id="paint6_linear_86_44" x1="93.8164" y1="284.968" x2="128.349" y2="319.036" gradientUnits="userSpaceOnUse">
<stop offset="0.00132565" stop-color="#0097D4"/>
<stop offset="0.2368" stop-color="#0294D6"/>
<stop offset="0.4442" stop-color="#0989DB"/>
<stop offset="0.6411" stop-color="#1477E4"/>
<stop offset="0.8304" stop-color="#245EF0"/>
<stop offset="1" stop-color="#3640FF"/>
</linearGradient>
<linearGradient id="paint7_linear_86_44" x1="107.123" y1="306.757" x2="129.359" y2="321.539" gradientUnits="userSpaceOnUse">
<stop stop-color="#0097D4" stop-opacity="0"/>
<stop offset="0.3342" stop-color="#029AD7" stop-opacity="0.3342"/>
<stop offset="0.6287" stop-color="#08A3E2" stop-opacity="0.6287"/>
<stop offset="0.9072" stop-color="#13B2F4" stop-opacity="0.9072"/>
<stop offset="1" stop-color="#17B9FC"/>
</linearGradient>
<linearGradient id="paint8_linear_86_44" x1="199.305" y1="339.835" x2="200.249" y2="362.685" gradientUnits="userSpaceOnUse">
<stop offset="0.00132565" stop-color="#F0C492"/>
<stop offset="1" stop-color="#F8DBBA"/>
</linearGradient>
<linearGradient id="paint9_linear_86_44" x1="202.77" y1="349.291" x2="188.133" y2="248.817" gradientUnits="userSpaceOnUse">
<stop stop-color="#D2A374" stop-opacity="0"/>
<stop offset="1" stop-color="#B88653"/>
</linearGradient>
<linearGradient id="paint10_linear_86_44" x1="187.863" y1="325.212" x2="183.253" y2="279.409" gradientUnits="userSpaceOnUse">
<stop stop-color="#FFBA47" stop-opacity="0"/>
<stop offset="1" stop-color="#C66F34"/>
</linearGradient>
<linearGradient id="paint11_linear_86_44" x1="175.891" y1="340.752" x2="176.856" y2="363.492" gradientUnits="userSpaceOnUse">
<stop offset="0.00132565" stop-color="#F0C492"/>
<stop offset="1" stop-color="#F8DBBA"/>
</linearGradient>
<linearGradient id="paint12_linear_86_44" x1="179.727" y1="353.312" x2="159.006" y2="246.852" gradientUnits="userSpaceOnUse">
<stop stop-color="#D2A374" stop-opacity="0"/>
<stop offset="1" stop-color="#B88653"/>
</linearGradient>
<linearGradient id="paint13_linear_86_44" x1="179.168" y1="345.139" x2="159.797" y2="276.788" gradientUnits="userSpaceOnUse">
<stop stop-color="#FFBA47" stop-opacity="0"/>
<stop offset="1" stop-color="#C66F34"/>
</linearGradient>
<linearGradient id="paint14_linear_86_44" x1="152.614" y1="341.771" x2="153.58" y2="364.754" gradientUnits="userSpaceOnUse">
<stop offset="0.00132565" stop-color="#F0C492"/>
<stop offset="1" stop-color="#F8DBBA"/>
</linearGradient>
<linearGradient id="paint15_linear_86_44" x1="156.559" y1="342.661" x2="126.146" y2="234.115" gradientUnits="userSpaceOnUse">
<stop stop-color="#D2A374" stop-opacity="0"/>
<stop offset="1" stop-color="#B88653"/>
</linearGradient>
<linearGradient id="paint16_linear_86_44" x1="167.556" y1="353.681" x2="132.757" y2="288.453" gradientUnits="userSpaceOnUse">
<stop stop-color="#FFBA47" stop-opacity="0"/>
<stop offset="1" stop-color="#C66F34"/>
</linearGradient>
<linearGradient id="paint17_linear_86_44" x1="297.874" y1="473.156" x2="214.063" y2="227.081" gradientUnits="userSpaceOnUse">
<stop offset="0.00132565" stop-color="#F0C492"/>
<stop offset="1" stop-color="#F8DBBA"/>
</linearGradient>
<linearGradient id="paint18_linear_86_44" x1="273.939" y1="269.739" x2="327.785" y2="74.4179" gradientUnits="userSpaceOnUse">
<stop stop-color="#FFBC47" stop-opacity="0"/>
<stop offset="1" stop-color="#C86F34"/>
</linearGradient>
<linearGradient id="paint19_linear_86_44" x1="266.523" y1="267.857" x2="408.518" y2="61.9449" gradientUnits="userSpaceOnUse">
<stop stop-color="#FFBC47" stop-opacity="0"/>
<stop offset="1" stop-color="#C86F34"/>
</linearGradient>
<linearGradient id="paint20_linear_86_44" x1="235.772" y1="333.81" x2="169.985" y2="218.562" gradientUnits="userSpaceOnUse">
<stop stop-color="#E6AF74" stop-opacity="0"/>
<stop offset="1" stop-color="#E6AF74"/>
</linearGradient>
<linearGradient id="paint21_linear_86_44" x1="185.314" y1="276.39" x2="-38.1336" y2="-23.3253" gradientUnits="userSpaceOnUse">
<stop stop-color="#FFBC47" stop-opacity="0"/>
<stop offset="1" stop-color="#C86F34"/>
</linearGradient>
<linearGradient id="paint22_linear_86_44" x1="274.896" y1="261.077" x2="246.709" y2="210.411" gradientUnits="userSpaceOnUse">
<stop stop-color="#FFBB47" stop-opacity="0.9686"/>
<stop offset="0.0026513" stop-color="#FFBA47"/>
<stop offset="1" stop-color="#FFD748" stop-opacity="0"/>
</linearGradient>
<linearGradient id="paint23_linear_86_44" x1="124.539" y1="86.0196" x2="175.698" y2="365.646" gradientUnits="userSpaceOnUse">
<stop stop-color="#E6AF74" stop-opacity="0"/>
<stop offset="1" stop-color="#E6AF74"/>
</linearGradient>
<radialGradient id="paint24_radial_86_44" cx="0" cy="0" r="1" gradientUnits="userSpaceOnUse" gradientTransform="translate(263.345 182.922) scale(442.269 435.082)">
<stop stop-color="#FFBC47" stop-opacity="0"/>
<stop offset="1" stop-color="#FF8900"/>
</radialGradient>
<linearGradient id="paint25_linear_86_44" x1="290.009" y1="194.41" x2="223.891" y2="378.075" gradientUnits="userSpaceOnUse">
<stop stop-color="#FFBC47" stop-opacity="0"/>
<stop offset="1" stop-color="#C86F34"/>
</linearGradient>
<radialGradient id="paint26_radial_86_44" cx="0" cy="0" r="1" gradientUnits="userSpaceOnUse" gradientTransform="translate(231.789 249.317) rotate(169.667) scale(31.9012 15.9588)">
<stop stop-color="#F8E6D2"/>
<stop offset="1" stop-color="#F8E6D2" stop-opacity="0"/>
</radialGradient>
<radialGradient id="paint27_radial_86_44" cx="0" cy="0" r="1" gradientUnits="userSpaceOnUse" gradientTransform="translate(142.279 223.964) rotate(-48.2246) scale(31.9134 16.3142)">
<stop stop-color="#F8E6D2"/>
<stop offset="1" stop-color="#F8E6D2" stop-opacity="0"/>
</radialGradient>
<linearGradient id="paint28_linear_86_44" x1="164.542" y1="158.987" x2="244.846" y2="212.639" gradientUnits="userSpaceOnUse">
<stop offset="0.00132565" stop-color="#0097D4"/>
<stop offset="0.2368" stop-color="#0294D6"/>
<stop offset="0.4442" stop-color="#0989DB"/>
<stop offset="0.6411" stop-color="#1477E4"/>
<stop offset="0.8304" stop-color="#245EF0"/>
<stop offset="1" stop-color="#3640FF"/>
</linearGradient>
<radialGradient id="paint29_radial_86_44" cx="0" cy="0" r="1" gradientUnits="userSpaceOnUse" gradientTransform="translate(226.391 155.861) rotate(-55.6127) scale(110.512 2.36277)">
<stop stop-color="white" stop-opacity="0.5"/>
<stop offset="1" stop-color="white" stop-opacity="0"/>
</radialGradient>
<linearGradient id="paint30_linear_86_44" x1="155.946" y1="132.786" x2="247.224" y2="195.512" gradientUnits="userSpaceOnUse">
<stop offset="0.00132565" stop-color="#0097D4"/>
<stop offset="0.2368" stop-color="#0294D6"/>
<stop offset="0.4442" stop-color="#0989DB"/>
<stop offset="0.6411" stop-color="#1477E4"/>
<stop offset="0.8304" stop-color="#245EF0"/>
<stop offset="1" stop-color="#3640FF"/>
</linearGradient>
</defs>
</svg>
