<svg width="338" height="129" viewBox="0 0 338 129" fill="none" xmlns="http://www.w3.org/2000/svg">
<path d="M15.5 93C6.93625 93 0 99.8823 0 108.379C0 115.185 4.43687 120.933 10.5981 122.971C11.3731 123.105 11.6637 122.644 11.6637 122.24C11.6637 121.875 11.6444 120.664 11.6444 119.376C7.75 120.087 6.7425 118.434 6.4325 117.569C6.25812 117.126 5.5025 115.762 4.84375 115.396C4.30125 115.108 3.52625 114.397 4.82438 114.377C6.045 114.358 6.91688 115.492 7.2075 115.954C8.6025 118.28 10.8306 117.626 11.7219 117.223C11.8575 116.223 12.2644 115.55 12.71 115.166C9.26125 114.781 5.6575 113.455 5.6575 107.572C5.6575 105.899 6.25813 104.515 7.24625 103.439C7.09125 103.054 6.54875 101.478 7.40125 99.3632C7.40125 99.3632 8.69938 98.9595 11.6637 100.94C12.9037 100.594 14.2213 100.421 15.5388 100.421C16.8563 100.421 18.1738 100.594 19.4138 100.94C22.3781 98.9403 23.6763 99.3632 23.6763 99.3632C24.5288 101.478 23.9863 103.054 23.8313 103.439C24.8194 104.515 25.42 105.88 25.42 107.572C25.42 113.474 21.7969 114.781 18.3481 115.166C18.91 115.646 19.3944 116.569 19.3944 118.011C19.3944 120.068 19.375 121.721 19.375 122.24C19.375 122.644 19.6656 123.124 20.4406 122.971C23.5181 121.941 26.1924 119.979 28.0868 117.361C29.9811 114.743 31 111.602 31 108.379C31 99.8823 24.0638 93 15.5 93Z" fill="#FDF9FF"/>
<path d="M150.5 51C145.804 51 142 54.6706 142 59.2024C142 62.8319 144.433 65.8975 147.812 66.9843C148.237 67.0561 148.396 66.81 148.396 66.5947C148.396 66.3999 148.386 65.754 148.386 65.067C146.25 65.4464 145.697 64.5646 145.527 64.1033C145.432 63.8674 145.018 63.1395 144.656 62.9447C144.359 62.7909 143.934 62.4115 144.646 62.4013C145.315 62.391 145.793 62.9959 145.953 63.242C146.718 64.4826 147.939 64.134 148.428 63.9187C148.503 63.3855 148.726 63.0267 148.97 62.8216C147.079 62.6166 145.103 61.9091 145.103 58.7717C145.103 57.8797 145.432 57.1415 145.974 56.5673C145.889 56.3623 145.591 55.5215 146.059 54.3937C146.059 54.3937 146.771 54.1784 148.396 55.2345C149.076 55.0499 149.799 54.9576 150.521 54.9576C151.244 54.9576 151.966 55.0499 152.646 55.2345C154.272 54.1682 154.984 54.3937 154.984 54.3937C155.451 55.5215 155.154 56.3623 155.069 56.5673C155.611 57.1415 155.94 57.8695 155.94 58.7717C155.94 61.9194 153.953 62.6166 152.062 62.8216C152.37 63.078 152.636 63.5701 152.636 64.3391C152.636 65.4361 152.625 66.3179 152.625 66.5947C152.625 66.81 152.784 67.0664 153.209 66.9843C154.897 66.435 156.364 65.3886 157.402 63.9926C158.441 62.5965 159 60.9211 159 59.2024C159 54.6706 155.196 51 150.5 51Z" fill="#FDF9FF"/>
<path d="M288.5 109.5H296.75L288.5 101.25V109.5ZM278 99H290L299 108V126C299 126.796 298.684 127.559 298.121 128.121C297.559 128.684 296.796 129 296 129H278C277.204 129 276.441 128.684 275.879 128.121C275.316 127.559 275 126.796 275 126V102C275 100.335 276.335 99 278 99ZM290 126V124.5C290 122.505 285.995 121.5 284 121.5C282.005 121.5 278 122.505 278 124.5V126H290ZM284 114C283.204 114 282.441 114.316 281.879 114.879C281.316 115.441 281 116.204 281 117C281 117.796 281.316 118.559 281.879 119.121C282.441 119.684 283.204 120 284 120C284.796 120 285.559 119.684 286.121 119.121C286.684 118.559 287 117.796 287 117C287 116.204 286.684 115.441 286.121 114.879C285.559 114.316 284.796 114 284 114Z" fill="#FDF9FF"/>
<path d="M201 0C201.796 0 202.559 0.31607 203.121 0.87868C203.684 1.44129 204 2.20435 204 3V24C204 24.7956 203.684 25.5587 203.121 26.1213C202.559 26.6839 201.796 27 201 27H180C179.204 27 178.441 26.6839 177.879 26.1213C177.316 25.5587 177 24.7956 177 24V3C177 2.20435 177.316 1.44129 177.879 0.87868C178.441 0.31607 179.204 0 180 0H201ZM200.25 23.25V15.3C200.25 14.0031 199.735 12.7593 198.818 11.8422C197.901 10.9252 196.657 10.41 195.36 10.41C194.085 10.41 192.6 11.19 191.88 12.36V10.695H187.695V23.25H191.88V15.855C191.88 14.7 192.81 13.755 193.965 13.755C194.522 13.755 195.056 13.9762 195.45 14.3701C195.844 14.7639 196.065 15.298 196.065 15.855V23.25H200.25ZM182.82 8.34C183.488 8.34 184.129 8.0745 184.602 7.60191C185.075 7.12932 185.34 6.48835 185.34 5.82C185.34 4.425 184.215 3.285 182.82 3.285C182.148 3.285 181.503 3.55208 181.027 4.02748C180.552 4.50289 180.285 5.14768 180.285 5.82C180.285 7.215 181.425 8.34 182.82 8.34ZM184.905 23.25V10.695H180.75V23.25H184.905Z" fill="#FDF9FF"/>
<path d="M45.2222 36C45.6937 36 46.1459 36.1873 46.4793 36.5207C46.8127 36.8541 47 37.3063 47 37.7778V50.2222C47 50.6937 46.8127 51.1459 46.4793 51.4793C46.1459 51.8127 45.6937 52 45.2222 52H32.7778C32.3063 52 31.8541 51.8127 31.5207 51.4793C31.1873 51.1459 31 50.6937 31 50.2222V37.7778C31 37.3063 31.1873 36.8541 31.5207 36.5207C31.8541 36.1873 32.3063 36 32.7778 36H45.2222ZM44.7778 49.7778V45.0667C44.7778 44.2981 44.4725 43.5611 43.929 43.0176C43.3856 42.4742 42.6485 42.1689 41.88 42.1689C41.1244 42.1689 40.2444 42.6311 39.8178 43.3244V42.3378H37.3378V49.7778H39.8178V45.3956C39.8178 44.7111 40.3689 44.1511 41.0533 44.1511C41.3834 44.1511 41.6999 44.2822 41.9333 44.5156C42.1667 44.749 42.2978 45.0655 42.2978 45.3956V49.7778H44.7778ZM34.4489 40.9422C34.8449 40.9422 35.2248 40.7849 35.5048 40.5048C35.7849 40.2248 35.9422 39.8449 35.9422 39.4489C35.9422 38.6222 35.2756 37.9467 34.4489 37.9467C34.0505 37.9467 33.6684 38.1049 33.3867 38.3867C33.1049 38.6684 32.9467 39.0505 32.9467 39.4489C32.9467 40.2756 33.6222 40.9422 34.4489 40.9422ZM35.6844 49.7778V42.3378H33.2222V49.7778H35.6844Z" fill="#FDF9FF"/>
<path d="M172 126.375V110.625C172 109.173 170.818 108 169.354 108H144.646C143.182 108 142 109.173 142 110.625V126.375C142 127.827 143.182 129 144.646 129H169.354C170.818 129 172 127.827 172 126.375ZM169.69 110.432C170.272 111.01 169.954 111.605 169.637 111.903L162.476 118.412L169.354 125.518C169.566 125.763 169.707 126.148 169.46 126.41C169.231 126.69 168.702 126.672 168.473 126.497L160.765 119.97L156.991 123.382L153.235 119.97L145.527 126.497C145.298 126.672 144.769 126.69 144.54 126.41C144.293 126.148 144.434 125.763 144.646 125.518L151.524 118.412L144.363 111.903C144.046 111.605 143.728 111.01 144.31 110.432C144.892 109.855 145.492 110.135 145.986 110.555L156.991 119.375L168.014 110.555C168.508 110.135 169.108 109.855 169.69 110.432Z" fill="#FDF9FF"/>
<path d="M338 82.375V72.625C338 71.7258 337.291 71 336.413 71H321.587C320.709 71 320 71.7258 320 72.625V82.375C320 83.2742 320.709 84 321.587 84H336.413C337.291 84 338 83.2742 338 82.375ZM336.614 72.5058C336.963 72.8633 336.772 73.2317 336.582 73.4158L332.286 77.4458L336.413 81.8442C336.54 81.9958 336.624 82.2342 336.476 82.3967C336.339 82.57 336.021 82.5592 335.884 82.4508L331.259 78.41L328.995 80.5225L326.741 78.41L322.116 82.4508C321.979 82.5592 321.661 82.57 321.524 82.3967C321.376 82.2342 321.46 81.9958 321.587 81.8442L325.714 77.4458L321.418 73.4158C321.228 73.2317 321.037 72.8633 321.386 72.5058C321.735 72.1483 322.095 72.3217 322.392 72.5817L328.995 78.0417L335.608 72.5817C335.905 72.3217 336.265 72.1483 336.614 72.5058Z" fill="#FDF9FF"/>
<path fill-rule="evenodd" clip-rule="evenodd" d="M257.082 20.5925C254.365 21.4359 251.949 23.1343 250.15 25.4657C248.352 27.7971 247.254 30.6532 247 33.6609H253.426C253.798 29.0842 255.042 24.6366 257.08 20.5903L257.082 20.5925ZM253.426 36.3393H247C247.253 39.3471 248.351 42.2034 250.149 44.5352C251.947 46.867 254.363 48.5659 257.08 49.4098C255.042 45.3635 253.798 40.916 253.426 36.3393ZM260.301 49.9819C257.865 45.8625 256.372 41.1888 255.944 36.3393H266.054C265.626 41.1888 264.133 45.8625 261.697 49.9819C261.232 50.006 260.766 50.006 260.301 49.9819ZM264.92 49.4077C267.637 48.5639 270.052 46.8654 271.85 44.534C273.649 42.2026 274.746 39.3467 275 36.3393H268.574C268.202 40.916 266.958 45.3635 264.92 49.4098V49.4077ZM268.574 33.6609H275C274.747 30.6531 273.649 27.7967 271.851 25.4649C270.053 23.1331 267.637 21.4343 264.92 20.5903C266.958 24.6366 268.202 29.0842 268.574 33.6609ZM260.301 20.0182C260.767 19.9939 261.233 19.9939 261.699 20.0182C264.134 24.1378 265.626 28.8115 266.054 33.6609H255.946C256.382 28.7819 257.878 24.1044 260.301 20.0182Z" fill="#FDF9FF"/>
<path fill-rule="evenodd" clip-rule="evenodd" d="M80.2017 79.4147C78.2607 80.0052 76.5351 81.194 75.2503 82.826C73.9655 84.458 73.1813 86.4573 73 88.5626H77.5898C77.8559 85.3589 78.7441 82.2457 80.2002 79.4132L80.2017 79.4147ZM77.5898 90.4375H73C73.1809 92.5429 73.9648 94.5424 75.2493 96.1747C76.5338 97.8069 78.2593 98.9961 80.2002 99.5869C78.7441 96.7545 77.8559 93.6412 77.5898 90.4375ZM82.5009 99.9873C80.7608 97.1038 79.6945 93.8322 79.3884 90.4375H86.6102C86.3041 93.8322 85.2378 97.1038 83.4977 99.9873C83.1656 100.004 82.8329 100.004 82.5009 99.9873ZM85.7998 99.5854C87.7405 98.9947 89.4658 97.8058 90.7503 96.1738C92.0348 94.5418 92.8189 92.5427 93 90.4375H88.4102C88.1441 93.6412 87.2559 96.7545 85.7998 99.5869V99.5854ZM88.4102 88.5626H93C92.8191 86.4572 92.0352 84.4577 90.7507 82.8255C89.4662 81.1932 87.7407 80.004 85.7998 79.4132C87.2559 82.2456 88.1442 85.3589 88.4102 88.5626ZM82.5009 79.0128C82.8334 78.9957 83.1666 78.9957 83.4991 79.0128C85.2387 81.8965 86.3045 85.1681 86.6102 88.5626H79.3898C79.7011 85.1474 80.7697 81.8731 82.5009 79.0128Z" fill="#FDF9FF"/>
<path d="M118.729 7.08482C118.999 7.16396 119.251 7.29807 119.472 7.47948C119.693 7.66089 119.877 7.88605 120.014 8.14209C120.152 8.39812 120.24 8.68001 120.273 8.97165C120.306 9.26329 120.285 9.55895 120.209 9.84173L113.902 33.3679C113.749 33.9388 113.386 34.4228 112.893 34.7133C112.399 35.0038 111.815 35.0771 111.27 34.917C110.725 34.7569 110.263 34.3766 109.985 33.8597C109.708 33.3428 109.638 32.7317 109.791 32.1608L116.097 8.63167C116.173 8.34895 116.301 8.08462 116.474 7.85378C116.648 7.62295 116.863 7.43013 117.107 7.28634C117.352 7.14255 117.621 7.05062 117.899 7.01578C118.178 6.98095 118.46 7.0039 118.73 7.08333L118.729 7.08482ZM108.68 13.0979C109.08 13.517 109.305 14.0851 109.305 14.6775C109.305 15.2699 109.08 15.838 108.68 16.2571L104.155 21.0005L108.683 25.7424C109.084 26.1618 109.308 26.7304 109.308 27.3233C109.308 27.9162 109.083 28.4848 108.683 28.9039C108.282 29.3231 107.739 29.5585 107.173 29.5583C106.606 29.5582 106.063 29.3225 105.663 28.9032L99.6243 22.5802C99.2246 22.161 99 21.5929 99 21.0005C99 20.4082 99.2246 19.84 99.6243 19.4209L105.662 13.0979C105.86 12.8901 106.095 12.7254 106.355 12.6129C106.614 12.5005 106.891 12.4427 107.172 12.4427C107.452 12.4427 107.73 12.5005 107.989 12.6129C108.248 12.7254 108.482 12.8901 108.68 13.0979ZM121.319 16.2571C121.109 16.0525 120.941 15.8057 120.824 15.5315C120.707 15.2573 120.645 14.9613 120.64 14.6612C120.635 14.361 120.687 14.0629 120.795 13.7846C120.902 13.5062 121.062 13.2534 121.265 13.0411C121.467 12.8289 121.709 12.6615 121.975 12.5491C122.241 12.4367 122.525 12.3815 122.812 12.3868C123.099 12.3921 123.381 12.4578 123.643 12.5799C123.905 12.7021 124.141 12.8783 124.336 13.0979L130.375 19.4194C130.775 19.8386 131 20.4071 131 20.9998C131 21.5925 130.775 22.161 130.375 22.5802L124.338 28.9032C124.139 29.1108 123.904 29.2756 123.645 29.388C123.386 29.5004 123.108 29.5583 122.828 29.5583C122.548 29.5584 122.27 29.5006 122.011 29.3884C121.752 29.2761 121.516 29.1115 121.318 28.9039C121.12 28.6964 120.963 28.45 120.855 28.1788C120.748 27.9076 120.693 27.6169 120.692 27.3233C120.692 27.0298 120.748 26.739 120.855 26.4678C120.962 26.1965 121.119 25.9501 121.317 25.7424L125.846 21.0005L121.319 16.2571Z" fill="#FDF9FF"/>
<path d="M223.413 71.0666C223.624 71.1288 223.821 71.2342 223.994 71.3767C224.166 71.5193 224.31 71.6962 224.417 71.8974C224.525 72.0985 224.594 72.32 224.62 72.5492C224.646 72.7783 224.629 73.0106 224.569 73.2328L219.642 91.7176C219.523 92.1662 219.239 92.5465 218.854 92.7747C218.468 93.003 218.012 93.0605 217.586 92.9348C217.16 92.809 216.799 92.5102 216.582 92.1041C216.365 91.698 216.311 91.2178 216.43 90.7692L221.357 72.282C221.416 72.0599 221.516 71.8522 221.652 71.6708C221.787 71.4895 221.955 71.338 222.146 71.225C222.337 71.112 222.547 71.0398 222.765 71.0124C222.983 70.985 223.203 71.0031 223.414 71.0655L223.413 71.0666ZM215.563 75.7912C215.875 76.1205 216.051 76.5669 216.051 77.0323C216.051 77.4978 215.875 77.9442 215.563 78.2735L212.027 82.0004L215.565 85.7262C215.878 86.0557 216.053 86.5025 216.053 86.9683C216.053 87.4342 215.877 87.8809 215.565 88.2102C215.252 88.5396 214.827 88.7245 214.385 88.7244C213.943 88.7243 213.518 88.5391 213.206 88.2096L208.488 83.2416C208.175 82.9122 208 82.4658 208 82.0004C208 81.535 208.175 81.0886 208.488 80.7593L213.204 75.7912C213.359 75.628 213.543 75.4985 213.746 75.4102C213.948 75.3218 214.165 75.2764 214.384 75.2764C214.603 75.2764 214.82 75.3218 215.023 75.4102C215.225 75.4985 215.408 75.628 215.563 75.7912ZM225.437 78.2735C225.273 78.1127 225.141 77.9188 225.05 77.7033C224.959 77.4879 224.91 77.2553 224.906 77.0195C224.902 76.7837 224.943 76.5494 225.027 76.3307C225.111 76.112 225.236 75.9134 225.394 75.7466C225.553 75.5798 225.741 75.4483 225.949 75.36C226.157 75.2717 226.379 75.2283 226.603 75.2325C226.827 75.2366 227.048 75.2882 227.252 75.3842C227.457 75.4802 227.641 75.6186 227.794 75.7912L232.512 80.7581C232.824 81.0875 233 81.5341 233 81.9998C233 82.4655 232.824 82.9122 232.512 83.2416L227.795 88.2096C227.64 88.3728 227.456 88.5022 227.254 88.5905C227.052 88.6789 226.835 88.7243 226.616 88.7244C226.397 88.7245 226.18 88.6791 225.977 88.5909C225.775 88.5026 225.591 88.3733 225.436 88.2102C225.281 88.0472 225.158 87.8536 225.074 87.6405C224.99 87.4274 224.947 87.199 224.947 86.9683C224.947 86.7377 224.99 86.5093 225.074 86.2961C225.158 86.083 225.281 85.8893 225.435 85.7262L228.974 82.0004L225.437 78.2735Z" fill="#FDF9FF"/>
</svg>
