<svg width="460" height="460" viewBox="0 0 460 460" fill="none" xmlns="http://www.w3.org/2000/svg">
<rect width="460" height="460" fill="white"/>
<path d="M74.2383 261.77C74.043 261.184 73.9453 260.48 73.9453 259.66C73.9453 258.957 74.082 258.293 74.3555 257.668C75.0586 256.145 76.2109 255.383 77.8125 255.383C79.2969 255.422 80.7227 256.281 82.0898 257.961C82.5195 258.508 82.9297 259.016 83.3203 259.484C88.7891 266.203 94.0234 269.562 99.0234 269.562C103.945 269.562 108.164 267.785 111.68 264.23C115.117 260.715 116.836 256.535 116.836 251.691C116.797 247.512 115.703 243.957 113.555 241.027C111.836 238.645 108.789 236.184 104.414 233.645C99.8047 230.949 97.0508 229.289 96.1523 228.664C94.1211 227.258 92.4023 225.812 90.9961 224.328C87.4414 220.578 85.6641 215.949 85.6641 210.441C85.6641 209.738 85.7031 208.996 85.7812 208.215C86.3281 202.277 88.7695 197.277 93.1055 193.215C97.5586 189.113 102.793 187.062 108.809 187.062C111.387 187.062 113.906 187.473 116.367 188.293C121.484 190.051 125.43 193.098 128.203 197.434C128.672 198.605 128.906 199.465 128.906 200.012C128.906 200.715 128.711 201.418 128.32 202.121C127.461 203.566 126.23 204.289 124.629 204.289C123.223 204.289 122.227 203.918 121.641 203.176C117.656 198.371 113.379 195.949 108.809 195.91C105.215 195.91 102.031 197.219 99.2578 199.836C96.1719 202.766 94.6289 206.34 94.6289 210.559C94.6289 213.176 95.4297 215.52 97.0312 217.59C98.4766 219.465 101.309 221.672 105.527 224.211C110.137 226.945 113.574 229.23 115.84 231.066C123.105 236.926 126.738 243.801 126.738 251.691C126.738 253.449 126.562 255.207 126.211 256.965C124.922 263.176 121.699 268.352 116.543 272.492C111.309 276.711 105.469 278.82 99.0234 278.82C94.8438 278.82 90.8008 277.727 86.8945 275.539C81.5039 272.453 77.2852 267.863 74.2383 261.77ZM138.398 271.73L148.359 195.324C148.945 190.793 150.566 188.508 153.223 188.469C153.848 188.469 154.434 188.547 154.98 188.703C156.465 189.25 157.207 190.891 157.207 193.625C157.207 196.984 155.586 211.262 152.344 236.457C155.234 231.379 159.355 228.82 164.707 228.781C166.621 228.781 168.398 229.387 170.039 230.598C172.383 232.316 173.555 234.602 173.555 237.453C173.555 237.883 173.555 238.977 173.555 240.734C173.516 244.758 173.496 247.941 173.496 250.285C173.496 258.371 173.711 263.059 174.141 264.348C174.219 264.621 174.316 264.914 174.434 265.227C175.605 268.312 177.168 269.855 179.121 269.855C179.512 269.855 179.922 269.816 180.352 269.738C181.484 269.465 183.145 268.547 185.332 266.984C187.48 265.422 189.199 264.641 190.488 264.641C190.957 264.641 191.426 264.777 191.895 265.051C193.145 265.793 193.77 266.965 193.77 268.566C193.77 268.684 193.75 268.84 193.711 269.035C193.438 270.91 191.816 272.863 188.848 274.895C185.215 277.316 181.621 278.527 178.066 278.527C176.66 278.527 175.332 278.352 174.082 278C167.598 276.086 164.355 269.367 164.355 257.844C164.355 256.867 164.395 255.344 164.473 253.273C164.59 250.812 164.648 248.898 164.648 247.531C164.648 241.75 164.141 238.82 163.125 238.742C162.93 238.742 162.715 238.781 162.48 238.859C160.254 239.719 157.422 244.094 153.984 251.984C150.977 259.016 149.043 264.934 148.184 269.738C148.027 270.52 147.949 271.125 147.949 271.555C147.832 272.961 147.441 274.23 146.777 275.363C145.684 277.238 144.297 278.176 142.617 278.176C142.148 278.176 141.68 278.078 141.211 277.883C139.336 277.102 138.398 275.285 138.398 272.434V271.73ZM188.027 260.07C188.027 258.742 188.105 257.336 188.262 255.852C189.082 249.172 191.191 243.234 194.59 238.039C198.73 231.672 203.711 228.488 209.531 228.488C211.094 228.488 212.598 228.684 214.043 229.074C219.199 230.559 221.777 234.191 221.777 239.973C221.777 240.402 221.758 240.852 221.719 241.32C221.328 246.555 218.984 250.949 214.688 254.504C210.469 258.02 205.566 259.777 199.98 259.777C198.926 259.777 197.891 259.68 196.875 259.484C196.797 260.07 196.758 260.891 196.758 261.945C196.758 264.211 197.148 265.969 197.93 267.219C198.984 268.82 201.152 269.758 204.434 270.031C205.879 270.031 207.305 269.875 208.711 269.562C211.172 268.977 214.082 267.59 217.441 265.402C219.629 263.957 221.172 263.234 222.07 263.234C222.578 263.234 223.105 263.391 223.652 263.703C224.902 264.445 225.527 265.52 225.527 266.926C225.527 267.395 225.43 267.902 225.234 268.449C224.18 270.988 221.016 273.391 215.742 275.656C210.859 277.766 206.562 278.82 202.852 278.82C201.445 278.82 200.137 278.703 198.926 278.469C191.66 276.984 188.027 270.852 188.027 260.07ZM206.836 237.688C203.281 240.07 200.488 244.602 198.457 251.281C199.434 251.516 200.371 251.633 201.27 251.633C204.512 251.633 207.344 250.637 209.766 248.645C212.461 246.457 213.809 243.859 213.809 240.852C213.809 237.844 212.852 236.32 210.938 236.281C209.57 236.32 208.203 236.789 206.836 237.688Z" fill="#FA7070"/>
<path d="M286.699 192.043C286.699 192.863 286.465 193.625 285.996 194.328C285.02 195.773 283.555 196.496 281.602 196.496H254.824C248.574 245.793 245.273 271.359 244.922 273.195C244.883 273.43 244.844 273.664 244.805 273.898C244.18 276.633 242.598 278 240.059 278C239.121 278 238.301 277.746 237.598 277.238C236.113 276.223 235.371 274.582 235.371 272.316C235.371 271.848 237.734 254.035 242.461 218.879C244.062 207.043 245.059 199.582 245.449 196.496H220.43C219.531 196.496 218.672 196.359 217.852 196.086C215.781 195.383 214.746 194.094 214.746 192.219C214.746 191.281 214.98 190.402 215.449 189.582C216.387 188.02 217.852 187.238 219.844 187.238H281.719C282.266 187.238 282.852 187.355 283.477 187.59C285.625 188.41 286.699 189.895 286.699 192.043ZM263.672 259.602C263.672 258.273 263.75 256.867 263.906 255.383C264.727 248.664 266.836 242.707 270.234 237.512C274.375 231.184 279.355 228.02 285.176 228.02C287.676 228.02 289.863 228.508 291.738 229.484C292.52 228.547 293.594 228.059 294.961 228.02C295.742 228.02 296.23 228.078 296.426 228.195C298.105 228.742 298.945 230.402 298.945 233.176C298.945 234.309 298.75 236.75 298.359 240.5C297.148 251.594 296.543 258.488 296.543 261.184C296.543 262.98 296.914 264.66 297.656 266.223C298.75 268.566 300.195 269.738 301.992 269.738C302.344 269.738 302.715 269.699 303.105 269.621C304.277 269.387 305.957 268.488 308.145 266.926C310.293 265.363 312.012 264.582 313.301 264.582C313.809 264.582 314.336 264.758 314.883 265.109C316.016 265.891 316.582 266.926 316.582 268.215C316.465 270.246 314.922 272.355 311.953 274.543C308.398 277.043 304.629 278.293 300.645 278.293C295.723 278.254 292.09 275.773 289.746 270.852C289.199 271.516 288.574 272.18 287.871 272.844C284.004 276.477 280.078 278.293 276.094 278.293C273.594 278.293 271.426 277.648 269.59 276.359C265.645 273.469 263.672 267.883 263.672 259.602ZM289.453 240.324C289.453 240.324 289.59 238.996 289.863 236.34C289.004 235.91 288.105 235.695 287.168 235.695C286.465 235.695 285.742 235.793 285 235.988C281.367 237.004 278.301 240.363 275.801 246.066C273.574 251.184 272.461 256.32 272.461 261.477C272.461 261.672 272.461 261.867 272.461 262.062C272.578 266.828 273.789 269.211 276.094 269.211C277.305 269.172 278.789 268.508 280.547 267.219C282.344 265.93 283.652 264.719 284.473 263.586C284.98 262.844 285.664 260.676 286.523 257.082C288.086 250.402 289.062 244.816 289.453 240.324ZM339.609 278C330.195 277.609 323.223 271.867 318.691 260.773C315.332 252.414 313.652 242.18 313.652 230.07C313.652 229.445 313.691 228.645 313.77 227.668C314.316 219.426 315.84 211.867 318.34 204.992C322.402 193.898 328.145 188.352 335.566 188.352C335.957 188.352 336.367 188.371 336.797 188.41C343.555 188.84 346.934 192.766 346.934 200.188C346.934 208.273 343.457 217.258 336.504 227.141C332.09 233.43 327.461 238.527 322.617 242.434C323.945 249.855 325.41 255.422 327.012 259.133C329.98 266.008 334.395 269.445 340.254 269.445C340.645 269.445 341.055 269.406 341.484 269.328C342.773 269.094 344.57 268.156 346.875 266.516C349.102 264.992 350.84 264.23 352.09 264.23C352.637 264.23 353.164 264.406 353.672 264.758C354.805 265.539 355.371 266.594 355.371 267.922C355.293 269.953 353.848 272.043 351.035 274.191C347.52 276.73 343.711 278 339.609 278ZM335.625 197.199C333.32 197.238 331.289 198.234 329.531 200.188C325.078 205.227 322.637 215.754 322.207 231.77C324.551 229.387 326.895 226.574 329.238 223.332C335.723 214.465 338.965 206.984 338.965 200.891C338.965 200.578 338.887 200.207 338.73 199.777C338.105 198.059 337.07 197.199 335.625 197.199ZM344.473 272.844C344.473 272.844 347.812 246.848 354.492 194.855C354.688 193.488 354.902 192.355 355.137 191.457C355.84 189.113 357.266 187.941 359.414 187.941C359.844 187.941 360.273 187.98 360.703 188.059C362.5 188.488 363.398 190.188 363.398 193.156C363.398 196.359 361.895 209.66 358.887 233.059C362.637 229.934 366.621 228.352 370.84 228.312C373.34 228.312 375.586 229.172 377.578 230.891C380.273 233.312 381.621 236.535 381.621 240.559C381.582 245.91 379.336 250.91 374.883 255.559C372.188 258.332 368.027 261.398 362.402 264.758C364.395 267.453 366.816 268.82 369.668 268.859C371.621 268.859 374.414 268.02 378.047 266.34C381.133 264.895 383.223 264.172 384.316 264.172C384.785 264.172 385.254 264.309 385.723 264.582C386.973 265.324 387.598 266.477 387.598 268.039C387.598 268.273 387.559 268.547 387.48 268.859C386.934 270.734 384.922 272.668 381.445 274.66C377.539 276.887 374.043 278 370.957 278C363.691 277.961 358.105 275.266 354.199 269.914C354.16 270.617 354.082 271.301 353.965 271.965C353.223 275.793 351.484 277.707 348.75 277.707C348.242 277.707 347.715 277.57 347.168 277.297C345.371 276.477 344.473 274.992 344.473 272.844ZM372.539 241.027C372.539 240.52 372.422 240.051 372.188 239.621C371.602 238.762 370.762 238.332 369.668 238.332C369.082 238.332 368.477 238.41 367.852 238.566C364.922 239.426 362.207 241.789 359.707 245.656C356.973 249.875 355.605 254.074 355.605 258.254C366.855 252.902 372.5 247.16 372.539 241.027Z" fill="#47D0BD"/>
</svg>
